<svg viewBox="0 0 1200 400" xmlns="http://www.w3.org/2000/svg" class="elevation-graph">
  <defs>
    <style>
      .elevation-text {
        font-size: 16px;
        fill: currentColor;
        opacity: 1;
        transition: opacity 0.2s;
        text-anchor: end;
      }
    </style>
  </defs>
  <path d="M 4.00,392.93 L 5.58,393.97 L 7.04,393.99 L 9.00,394.07 L 11.00,395.66 L 13.49,395.83 L 16.11,395.83 L 18.68,395.89 L 21.26,395.89 L 23.85,395.66 L 26.26,395.68 L 28.52,394.79 L 30.11,394.75 L 33.01,394.94 L 36.16,394.84 L 39.22,394.92 L 42.23,394.81 L 45.07,394.71 L 47.82,394.54 L 50.62,394.73 L 53.42,394.62 L 56.21,394.48 L 58.98,394.48 L 61.79,394.37 L 64.55,394.29 L 67.07,392.91 L 69.78,392.61 L 72.62,393.19 L 75.40,393.90 L 77.71,392.15 L 80.04,390.50 L 82.36,389.33 L 84.52,388.36 L 87.01,388.25 L 89.33,386.77 L 92.94,391.58 L 96.27,393.29 L 99.05,393.35 L 101.38,390.56 L 104.00,390.62 L 107.21,393.38 L 109.86,392.80 L 112.50,392.72 L 115.13,392.47 L 117.79,392.30 L 120.55,393.00 L 123.09,392.38 L 125.49,391.37 L 128.20,391.83 L 130.82,391.77 L 133.45,391.85 L 136.20,392.85 L 138.87,393.00 L 141.32,393.12 L 144.01,392.42 L 146.52,391.37 L 149.18,391.73 L 151.91,392.13 L 154.52,391.66 L 157.17,391.39 L 159.80,391.81 L 162.49,392.25 L 164.84,391.26 L 166.68,388.04 L 168.67,385.59 L 170.69,384.34 L 173.00,383.26 L 175.17,381.86 L 177.38,380.87 L 179.20,377.06 L 181.40,376.62 L 183.96,375.58 L 187.01,377.00 L 190.45,381.25 L 193.77,383.90 L 196.96,385.23 L 199.89,385.23 L 203.05,388.09 L 206.26,388.91 L 208.94,389.36 L 211.41,387.70 L 213.26,387.66 L 215.34,384.55 L 218.22,386.05 L 220.62,385.21 L 223.30,384.85 L 225.67,382.84 L 228.20,382.56 L 230.13,379.24 L 231.34,375.22 L 232.50,371.47 L 233.84,368.55 L 235.52,367.28 L 236.75,364.00 L 237.81,360.43 L 238.88,356.85 L 240.00,353.61 L 241.06,350.06 L 242.03,346.52 L 242.96,343.05 L 243.97,340.28 L 244.96,336.87 L 246.46,335.86 L 247.81,332.28 L 249.21,330.29 L 251.00,330.14 L 252.82,326.53 L 254.36,324.43 L 255.61,320.81 L 256.71,317.62 L 258.65,318.32 L 260.38,315.80 L 263.79,320.22 L 265.30,316.58 L 267.71,318.72 L 272.73,330.84 L 275.60,329.49 L 277.57,328.81 L 279.52,326.89 L 281.23,324.47 L 282.54,321.21 L 284.84,322.53 L 287.02,320.24 L 288.63,317.72 L 290.30,315.56 L 292.02,313.77 L 295.02,318.80 L 298.25,319.42 L 300.37,317.43 L 302.36,314.91 L 304.58,315.44 L 307.62,319.92 L 311.73,325.57 L 314.61,325.32 L 317.94,328.75 L 320.95,329.40 L 323.15,327.29 L 325.68,327.92 L 328.74,330.95 L 330.82,328.56 L 332.58,326.50 L 334.49,324.96 L 336.19,323.14 L 337.71,320.58 L 338.80,317.07 L 339.80,313.62 L 340.83,310.08 L 341.84,306.53 L 343.33,306.06 L 344.61,302.53 L 345.66,299.42 L 346.54,296.07 L 347.45,292.69 L 348.33,289.43 L 349.25,286.36 L 351.51,289.49 L 353.13,285.37 L 354.28,282.30 L 355.76,279.86 L 357.33,277.60 L 358.98,275.89 L 360.01,272.25 L 361.29,270.60 L 362.73,267.74 L 365.24,273.54 L 369.04,278.79 L 370.99,276.63 L 372.09,273.81 L 373.25,272.14 L 375.26,270.38 L 377.10,267.95 L 378.62,266.49 L 380.07,264.31 L 382.04,263.63 L 384.34,264.04 L 386.78,263.72 L 388.75,261.64 L 390.63,259.76 L 393.04,260.99 L 396.80,269.52 L 401.39,280.50 L 405.63,289.01 L 407.78,287.08 L 408.86,284.03 L 410.12,282.02 L 412.34,284.48 L 414.84,283.25 L 416.14,280.20 L 417.50,277.60 L 419.35,277.32 L 421.19,276.29 L 422.86,274.72 L 424.14,271.97 L 425.37,270.34 L 426.60,268.44 L 427.65,265.50 L 428.73,262.43 L 429.92,259.91 L 432.89,264.16 L 435.34,263.21 L 436.73,260.86 L 437.95,258.41 L 439.19,255.85 L 440.82,254.87 L 443.19,256.10 L 445.93,258.28 L 448.85,261.56 L 451.38,261.58 L 453.76,261.39 L 455.97,259.85 L 457.56,257.35 L 458.78,254.36 L 460.35,252.86 L 461.82,250.34 L 463.04,247.68 L 464.27,244.84 L 467.53,252.16 L 471.78,261.28 L 474.15,260.82 L 475.23,257.73 L 476.18,254.07 L 478.16,256.61 L 480.57,253.81 L 481.86,251.08 L 485.49,260.27 L 488.97,262.96 L 490.73,263.80 L 495.51,276.99 L 496.78,272.69 L 498.02,271.40 L 499.14,268.59 L 499.94,265.41 L 500.91,263.13 L 503.19,266.02 L 504.93,268.39 L 508.26,275.10 L 512.60,286.97 L 515.92,290.40 L 518.14,289.37 L 519.64,286.15 L 521.70,287.21 L 524.04,286.78 L 527.49,297.24 L 531.44,304.79 L 533.86,304.52 L 536.69,311.44 L 538.61,309.41 L 540.25,306.76 L 541.73,305.17 L 543.05,302.91 L 544.16,300.62 L 545.09,297.09 L 546.12,294.78 L 547.03,291.63 L 547.99,288.60 L 549.01,286.57 L 550.11,284.20 L 551.46,282.85 L 553.87,285.26 L 556.64,288.10 L 558.34,286.32 L 559.73,284.05 L 562.33,287.65 L 563.99,285.39 L 565.87,285.85 L 567.90,285.73 L 569.04,282.59 L 570.74,281.96 L 572.04,279.46 L 573.32,277.24 L 574.63,275.42 L 575.80,272.69 L 577.36,274.30 L 578.23,274.04 L 580.30,273.98 L 582.88,276.08 L 585.84,278.04 L 588.17,277.35 L 591.77,283.21 L 594.27,282.28 L 595.84,280.01 L 597.47,278.47 L 599.32,278.04 L 602.25,280.65 L 604.20,278.62 L 605.87,275.70 L 607.75,274.95 L 610.35,274.72 L 613.20,276.14 L 616.38,279.00 L 618.50,277.05 L 620.26,274.26 L 622.39,274.21 L 623.99,272.14 L 626.69,275.93 L 629.02,276.08 L 631.80,278.79 L 634.35,279.46 L 636.92,280.01 L 639.27,280.14 L 641.61,280.69 L 643.82,280.52 L 646.24,281.18 L 648.53,280.77 L 650.65,280.37 L 653.09,281.16 L 655.17,281.58 L 657.53,282.34 L 659.62,281.68 L 661.95,283.23 L 663.68,281.98 L 665.98,283.42 L 668.51,285.03 L 670.88,285.35 L 673.25,285.54 L 675.57,285.13 L 677.96,286.17 L 680.32,286.87 L 682.62,287.23 L 684.93,286.61 L 687.35,287.44 L 689.55,286.59 L 691.15,283.97 L 692.64,281.87 L 694.92,282.87 L 697.64,284.92 L 699.19,281.39 L 700.82,279.91 L 702.34,277.09 L 704.00,276.06 L 707.09,280.92 L 709.76,282.17 L 712.29,283.10 L 714.35,281.47 L 717.04,284.63 L 718.88,281.83 L 720.58,279.99 L 722.29,278.85 L 724.32,278.26 L 726.55,278.04 L 728.47,276.71 L 730.40,275.29 L 732.21,274.00 L 733.87,272.56 L 735.47,271.34 L 736.78,268.27 L 737.81,264.99 L 738.84,261.92 L 739.84,257.81 L 741.29,257.43 L 745.32,267.08 L 748.38,267.40 L 750.69,266.22 L 754.01,269.71 L 757.20,273.41 L 759.98,274.40 L 762.90,277.32 L 765.53,277.52 L 767.25,275.84 L 769.19,275.34 L 771.31,274.55 L 773.43,274.00 L 775.41,273.11 L 777.76,274.57 L 780.98,278.13 L 783.45,278.00 L 786.23,279.40 L 789.88,286.74 L 792.48,285.37 L 794.79,284.88 L 797.68,287.74 L 800.54,289.41 L 803.30,290.68 L 805.89,292.41 L 808.60,292.75 L 811.20,293.22 L 813.74,294.83 L 815.58,292.24 L 817.31,290.59 L 819.14,289.56 L 821.54,292.86 L 824.78,295.90 L 827.78,299.69 L 829.89,299.99 L 833.05,302.97 L 836.07,303.97 L 839.04,305.85 L 841.14,305.32 L 843.64,306.42 L 846.34,306.21 L 848.88,306.57 L 851.44,306.17 L 854.11,306.42 L 856.85,307.08 L 859.78,309.41 L 862.63,311.46 L 865.29,311.12 L 867.75,311.18 L 870.43,312.43 L 873.32,313.22 L 876.31,315.08 L 878.70,313.24 L 881.03,313.24 L 883.36,313.28 L 885.53,311.52 L 887.72,311.04 L 890.33,312.45 L 892.41,310.93 L 894.67,310.65 L 896.98,309.13 L 898.72,306.38 L 900.77,306.27 L 903.78,310.72 L 906.39,311.40 L 909.31,314.61 L 911.42,312.35 L 913.75,312.90 L 916.19,313.38 L 918.77,315.37 L 921.77,318.59 L 923.93,317.30 L 925.64,315.10 L 927.70,313.93 L 929.71,314.87 L 932.95,318.12 L 935.00,316.62 L 936.55,314.46 L 937.72,313.49 L 939.58,311.50 L 942.14,312.31 L 944.65,313.22 L 947.36,314.80 L 949.84,314.32 L 952.55,315.86 L 954.85,314.13 L 958.14,317.79 L 961.17,319.48 L 963.91,318.93 L 966.15,318.00 L 969.34,323.42 L 972.95,327.10 L 976.87,337.76 L 979.74,337.61 L 982.28,337.74 L 984.12,334.61 L 985.46,331.29 L 986.90,329.28 L 988.08,325.85 L 989.30,322.99 L 990.89,321.72 L 993.31,324.71 L 997.81,333.87 L 1001.05,335.96 L 1003.88,336.13 L 1005.26,332.37 L 1006.54,329.19 L 1008.50,328.90 L 1010.84,328.98 L 1012.88,327.56 L 1014.19,324.37 L 1015.52,321.36 L 1016.83,317.83 L 1018.69,317.70 L 1021.86,319.86 L 1024.04,317.43 L 1026.29,317.13 L 1028.66,317.49 L 1030.84,316.66 L 1033.26,316.43 L 1036.63,322.93 L 1039.57,325.79 L 1042.10,326.17 L 1043.53,323.61 L 1044.68,320.58 L 1045.76,317.45 L 1046.96,315.95 L 1048.07,313.68 L 1049.01,310.53 L 1050.04,307.10 L 1052.21,310.95 L 1055.33,312.88 L 1056.52,309.36 L 1057.62,307.42 L 1058.98,305.79 L 1060.30,304.12 L 1061.63,302.25 L 1062.78,299.50 L 1063.94,295.08 L 1066.34,298.51 L 1070.68,306.13 L 1074.26,309.36 L 1077.46,313.64 L 1081.44,320.16 L 1084.61,323.25 L 1087.05,325.98 L 1089.58,328.07 L 1092.79,330.12 L 1095.81,330.97 L 1098.68,330.63 L 1101.81,331.54 L 1103.95,331.41" fill="none" stroke="currentColor" stroke-width="4" stroke-linecap="round" stroke-linejoin="round" />
  <text id="elevationText" class="elevation-text" x="1186" y="386">249.5km, 3180m</text>
  <script>
    <![CDATA[
      (function() {
        var currentScript = document.currentScript;
        var svg = currentScript.closest('svg');
        var text = svg.querySelector('#elevationText');
        var data = [{x:4.00,dist:0.0,ele:18},{x:5.58,dist:0.4,ele:13},{x:7.04,dist:0.7,ele:13},{x:9.00,dist:1.1,ele:13},{x:11.00,dist:1.6,ele:5},{x:13.49,dist:2.2,ele:4},{x:16.11,dist:2.7,ele:4},{x:18.68,dist:3.3,ele:4},{x:21.26,dist:3.9,ele:4},{x:23.85,dist:4.5,ele:5},{x:26.26,dist:5.1,ele:5},{x:28.52,dist:5.6,ele:9},{x:30.11,dist:5.9,ele:10},{x:33.01,dist:6.6,ele:9},{x:36.16,dist:7.3,ele:9},{x:39.22,dist:8.0,ele:9},{x:42.23,dist:8.7,ele:9},{x:45.07,dist:9.3,ele:10},{x:47.82,dist:9.9,ele:11},{x:50.62,dist:10.6,ele:10},{x:53.42,dist:11.2,ele:10},{x:56.21,dist:11.8,ele:11},{x:58.98,dist:12.5,ele:11},{x:61.79,dist:13.1,ele:11},{x:64.55,dist:13.7,ele:12},{x:67.07,dist:14.3,ele:18},{x:69.78,dist:14.9,ele:20},{x:72.62,dist:15.6,ele:17},{x:75.40,dist:16.2,ele:14},{x:77.71,dist:16.7,ele:22},{x:80.04,dist:17.2,ele:30},{x:82.36,dist:17.8,ele:35},{x:84.52,dist:18.3,ele:40},{x:87.01,dist:18.8,ele:40},{x:89.33,dist:19.4,ele:47},{x:92.94,dist:20.2,ele:25},{x:96.27,dist:20.9,ele:16},{x:99.05,dist:21.6,ele:16},{x:101.38,dist:22.1,ele:29},{x:104.00,dist:22.7,ele:29},{x:107.21,dist:23.4,ele:16},{x:109.86,dist:24.0,ele:19},{x:112.50,dist:24.6,ele:19},{x:115.13,dist:25.2,ele:20},{x:117.79,dist:25.8,ele:21},{x:120.55,dist:26.4,ele:18},{x:123.09,dist:27.0,ele:21},{x:125.49,dist:27.6,ele:26},{x:128.20,dist:28.2,ele:23},{x:130.82,dist:28.8,ele:24},{x:133.45,dist:29.4,ele:23},{x:136.20,dist:30.0,ele:19},{x:138.87,dist:30.6,ele:18},{x:141.32,dist:31.1,ele:17},{x:144.01,dist:31.8,ele:21},{x:146.52,dist:32.3,ele:26},{x:149.18,dist:32.9,ele:24},{x:151.91,dist:33.5,ele:22},{x:154.52,dist:34.1,ele:24},{x:157.17,dist:34.7,ele:26},{x:159.80,dist:35.3,ele:24},{x:162.49,dist:35.9,ele:21},{x:164.84,dist:36.5,ele:26},{x:166.68,dist:36.9,ele:41},{x:168.67,dist:37.4,ele:53},{x:170.69,dist:37.8,ele:59},{x:173.00,dist:38.3,ele:64},{x:175.17,dist:38.8,ele:70},{x:177.38,dist:39.3,ele:75},{x:179.20,dist:39.7,ele:93},{x:181.40,dist:40.2,ele:95},{x:183.96,dist:40.8,ele:100},{x:187.01,dist:41.5,ele:94},{x:190.45,dist:42.3,ele:73},{x:193.77,dist:43.0,ele:61},{x:196.96,dist:43.8,ele:55},{x:199.89,dist:44.4,ele:55},{x:203.05,dist:45.1,ele:41},{x:206.26,dist:45.9,ele:37},{x:208.94,dist:46.5,ele:35},{x:211.41,dist:47.0,ele:43},{x:213.26,dist:47.5,ele:43},{x:215.34,dist:47.9,ele:58},{x:218.22,dist:48.6,ele:51},{x:220.62,dist:49.1,ele:55},{x:223.30,dist:49.7,ele:56},{x:225.67,dist:50.3,ele:66},{x:228.20,dist:50.9,ele:67},{x:230.13,dist:51.3,ele:83},{x:231.34,dist:51.6,ele:102},{x:232.50,dist:51.8,ele:120},{x:233.84,dist:52.1,ele:133},{x:235.52,dist:52.5,ele:139},{x:236.75,dist:52.8,ele:155},{x:237.81,dist:53.0,ele:172},{x:238.88,dist:53.3,ele:189},{x:240.00,dist:53.5,ele:204},{x:241.06,dist:53.8,ele:221},{x:242.03,dist:54.0,ele:238},{x:242.96,dist:54.2,ele:254},{x:243.97,dist:54.4,ele:267},{x:244.96,dist:54.7,ele:283},{x:246.46,dist:55.0,ele:288},{x:247.81,dist:55.3,ele:305},{x:249.21,dist:55.6,ele:314},{x:251.00,dist:56.0,ele:315},{x:252.82,dist:56.4,ele:332},{x:254.36,dist:56.8,ele:342},{x:255.61,dist:57.1,ele:359},{x:256.71,dist:57.3,ele:374},{x:258.65,dist:57.8,ele:371},{x:260.38,dist:58.2,ele:383},{x:263.79,dist:58.9,ele:362},{x:265.30,dist:59.3,ele:379},{x:267.71,dist:59.8,ele:369},{x:272.73,dist:61.0,ele:312},{x:275.60,dist:61.6,ele:318},{x:277.57,dist:62.1,ele:321},{x:279.52,dist:62.5,ele:330},{x:281.23,dist:62.9,ele:342},{x:282.54,dist:63.2,ele:357},{x:284.84,dist:63.7,ele:351},{x:287.02,dist:64.2,ele:362},{x:288.63,dist:64.6,ele:374},{x:290.30,dist:64.9,ele:384},{x:292.02,dist:65.3,ele:392},{x:295.02,dist:66.0,ele:368},{x:298.25,dist:66.7,ele:366},{x:300.37,dist:67.2,ele:375},{x:302.36,dist:67.7,ele:387},{x:304.58,dist:68.2,ele:384},{x:307.62,dist:68.9,ele:363},{x:311.73,dist:69.8,ele:336},{x:314.61,dist:70.5,ele:338},{x:317.94,dist:71.2,ele:322},{x:320.95,dist:71.9,ele:318},{x:323.15,dist:72.4,ele:328},{x:325.68,dist:73.0,ele:325},{x:328.74,dist:73.7,ele:311},{x:330.82,dist:74.1,ele:322},{x:332.58,dist:74.5,ele:332},{x:334.49,dist:75.0,ele:339},{x:336.19,dist:75.3,ele:348},{x:337.71,dist:75.7,ele:360},{x:338.80,dist:75.9,ele:377},{x:339.80,dist:76.2,ele:393},{x:340.83,dist:76.4,ele:410},{x:341.84,dist:76.6,ele:426},{x:343.33,dist:77.0,ele:429},{x:344.61,dist:77.3,ele:445},{x:345.66,dist:77.5,ele:460},{x:346.54,dist:77.7,ele:476},{x:347.45,dist:77.9,ele:492},{x:348.33,dist:78.1,ele:507},{x:349.25,dist:78.3,ele:522},{x:351.51,dist:78.8,ele:507},{x:353.13,dist:79.2,ele:526},{x:354.28,dist:79.5,ele:541},{x:355.76,dist:79.8,ele:552},{x:357.33,dist:80.1,ele:563},{x:358.98,dist:80.5,ele:571},{x:360.01,dist:80.7,ele:588},{x:361.29,dist:81.0,ele:596},{x:362.73,dist:81.4,ele:610},{x:365.24,dist:81.9,ele:582},{x:369.04,dist:82.8,ele:558},{x:370.99,dist:83.2,ele:568},{x:372.09,dist:83.5,ele:581},{x:373.25,dist:83.8,ele:589},{x:375.26,dist:84.2,ele:597},{x:377.10,dist:84.6,ele:609},{x:378.62,dist:85.0,ele:616},{x:380.07,dist:85.3,ele:626},{x:382.04,dist:85.7,ele:629},{x:384.34,dist:86.3,ele:627},{x:386.78,dist:86.8,ele:629},{x:388.75,dist:87.3,ele:639},{x:390.63,dist:87.7,ele:648},{x:393.04,dist:88.2,ele:642},{x:396.80,dist:89.1,ele:601},{x:401.39,dist:90.1,ele:550},{x:405.63,dist:91.1,ele:509},{x:407.78,dist:91.6,ele:518},{x:408.86,dist:91.8,ele:533},{x:410.12,dist:92.1,ele:542},{x:412.34,dist:92.6,ele:531},{x:414.84,dist:93.2,ele:536},{x:416.14,dist:93.5,ele:551},{x:417.50,dist:93.8,ele:563},{x:419.35,dist:94.2,ele:564},{x:421.19,dist:94.6,ele:569},{x:422.86,dist:95.0,ele:577},{x:424.14,dist:95.3,ele:590},{x:425.37,dist:95.6,ele:598},{x:426.60,dist:95.9,ele:606},{x:427.65,dist:96.1,ele:620},{x:428.73,dist:96.3,ele:635},{x:429.92,dist:96.6,ele:647},{x:432.89,dist:97.3,ele:627},{x:435.34,dist:97.8,ele:631},{x:436.73,dist:98.2,ele:642},{x:437.95,dist:98.4,ele:654},{x:439.19,dist:98.7,ele:666},{x:440.82,dist:99.1,ele:671},{x:443.19,dist:99.6,ele:665},{x:445.93,dist:100.2,ele:654},{x:448.85,dist:100.9,ele:639},{x:451.38,dist:101.5,ele:639},{x:453.76,dist:102.0,ele:640},{x:455.97,dist:102.5,ele:647},{x:457.56,dist:102.9,ele:659},{x:458.78,dist:103.2,ele:673},{x:460.35,dist:103.5,ele:680},{x:461.82,dist:103.8,ele:692},{x:463.04,dist:104.1,ele:705},{x:464.27,dist:104.4,ele:718},{x:467.53,dist:105.1,ele:683},{x:471.78,dist:106.1,ele:640},{x:474.15,dist:106.6,ele:642},{x:475.23,dist:106.9,ele:657},{x:476.18,dist:107.1,ele:674},{x:478.16,dist:107.5,ele:662},{x:480.57,dist:108.1,ele:676},{x:481.86,dist:108.4,ele:688},{x:485.49,dist:109.2,ele:645},{x:488.97,dist:110.0,ele:632},{x:490.73,dist:110.4,ele:628},{x:495.51,dist:111.5,ele:566},{x:496.78,dist:111.8,ele:586},{x:498.02,dist:112.1,ele:592},{x:499.14,dist:112.3,ele:606},{x:499.94,dist:112.5,ele:621},{x:500.91,dist:112.7,ele:632},{x:503.19,dist:113.2,ele:618},{x:504.93,dist:113.6,ele:607},{x:508.26,dist:114.4,ele:575},{x:512.60,dist:115.4,ele:519},{x:515.92,dist:116.1,ele:503},{x:518.14,dist:116.6,ele:508},{x:519.64,dist:117.0,ele:523},{x:521.70,dist:117.4,ele:518},{x:524.04,dist:118.0,ele:520},{x:527.49,dist:118.7,ele:470},{x:531.44,dist:119.6,ele:435},{x:533.86,dist:120.2,ele:436},{x:536.69,dist:120.8,ele:403},{x:538.61,dist:121.3,ele:413},{x:540.25,dist:121.6,ele:425},{x:541.73,dist:122.0,ele:433},{x:543.05,dist:122.3,ele:444},{x:544.16,dist:122.5,ele:454},{x:545.09,dist:122.7,ele:471},{x:546.12,dist:123.0,ele:482},{x:547.03,dist:123.2,ele:497},{x:547.99,dist:123.4,ele:511},{x:549.01,dist:123.6,ele:521},{x:550.11,dist:123.9,ele:532},{x:551.46,dist:124.2,ele:538},{x:553.87,dist:124.7,ele:527},{x:556.64,dist:125.3,ele:514},{x:558.34,dist:125.7,ele:522},{x:559.73,dist:126.1,ele:533},{x:562.33,dist:126.6,ele:516},{x:563.99,dist:127.0,ele:526},{x:565.87,dist:127.4,ele:524},{x:567.90,dist:127.9,ele:525},{x:569.04,dist:128.2,ele:540},{x:570.74,dist:128.5,ele:543},{x:572.04,dist:128.8,ele:554},{x:573.32,dist:129.1,ele:565},{x:574.63,dist:129.4,ele:574},{x:575.80,dist:129.7,ele:586},{x:577.36,dist:130.0,ele:579},{x:578.23,dist:130.2,ele:580},{x:580.30,dist:130.7,ele:580},{x:582.88,dist:131.3,ele:570},{x:585.84,dist:132.0,ele:561},{x:588.17,dist:132.5,ele:564},{x:591.77,dist:133.3,ele:537},{x:594.27,dist:133.9,ele:541},{x:595.84,dist:134.2,ele:552},{x:597.47,dist:134.6,ele:559},{x:599.32,dist:135.0,ele:561},{x:602.25,dist:135.7,ele:549},{x:604.20,dist:136.1,ele:558},{x:605.87,dist:136.5,ele:572},{x:607.75,dist:136.9,ele:576},{x:610.35,dist:137.5,ele:577},{x:613.20,dist:138.2,ele:570},{x:616.38,dist:138.9,ele:557},{x:618.50,dist:139.4,ele:566},{x:620.26,dist:139.8,ele:579},{x:622.39,dist:140.3,ele:579},{x:623.99,dist:140.6,ele:589},{x:626.69,dist:141.2,ele:571},{x:629.02,dist:141.8,ele:570},{x:631.80,dist:142.4,ele:558},{x:634.35,dist:143.0,ele:554},{x:636.92,dist:143.6,ele:552},{x:639.27,dist:144.1,ele:551},{x:641.61,dist:144.6,ele:549},{x:643.82,dist:145.1,ele:549},{x:646.24,dist:145.7,ele:546},{x:648.53,dist:146.2,ele:548},{x:650.65,dist:146.7,ele:550},{x:653.09,dist:147.2,ele:546},{x:655.17,dist:147.7,ele:544},{x:657.53,dist:148.2,ele:541},{x:659.62,dist:148.7,ele:544},{x:661.95,dist:149.2,ele:537},{x:663.68,dist:149.6,ele:542},{x:665.98,dist:150.1,ele:536},{x:668.51,dist:150.7,ele:528},{x:670.88,dist:151.3,ele:527},{x:673.25,dist:151.8,ele:526},{x:675.57,dist:152.3,ele:528},{x:677.96,dist:152.9,ele:523},{x:680.32,dist:153.4,ele:519},{x:682.62,dist:153.9,ele:518},{x:684.93,dist:154.4,ele:521},{x:687.35,dist:155.0,ele:517},{x:689.55,dist:155.5,ele:521},{x:691.15,dist:155.9,ele:533},{x:692.64,dist:156.2,ele:543},{x:694.92,dist:156.7,ele:538},{x:697.64,dist:157.3,ele:529},{x:699.19,dist:157.7,ele:545},{x:700.82,dist:158.1,ele:552},{x:702.34,dist:158.4,ele:566},{x:704.00,dist:158.8,ele:570},{x:707.09,dist:159.5,ele:548},{x:709.76,dist:160.1,ele:542},{x:712.29,dist:160.7,ele:537},{x:714.35,dist:161.1,ele:545},{x:717.04,dist:161.7,ele:530},{x:718.88,dist:162.1,ele:543},{x:720.58,dist:162.5,ele:552},{x:722.29,dist:162.9,ele:557},{x:724.32,dist:163.4,ele:560},{x:726.55,dist:163.9,ele:561},{x:728.47,dist:164.3,ele:567},{x:730.40,dist:164.8,ele:574},{x:732.21,dist:165.2,ele:580},{x:733.87,dist:165.5,ele:587},{x:735.47,dist:165.9,ele:593},{x:736.78,dist:166.2,ele:607},{x:737.81,dist:166.4,ele:623},{x:738.84,dist:166.7,ele:637},{x:739.84,dist:166.9,ele:657},{x:741.29,dist:167.2,ele:658},{x:745.32,dist:168.1,ele:613},{x:748.38,dist:168.8,ele:611},{x:750.69,dist:169.4,ele:617},{x:754.01,dist:170.1,ele:600},{x:757.20,dist:170.8,ele:583},{x:759.98,dist:171.5,ele:578},{x:762.90,dist:172.1,ele:564},{x:765.53,dist:172.7,ele:564},{x:767.25,dist:173.1,ele:572},{x:769.19,dist:173.6,ele:574},{x:771.31,dist:174.0,ele:578},{x:773.43,dist:174.5,ele:580},{x:775.41,dist:175.0,ele:584},{x:777.76,dist:175.5,ele:578},{x:780.98,dist:176.2,ele:561},{x:783.45,dist:176.8,ele:561},{x:786.23,dist:177.4,ele:555},{x:789.88,dist:178.3,ele:520},{x:792.48,dist:178.8,ele:526},{x:794.79,dist:179.4,ele:529},{x:797.68,dist:180.0,ele:515},{x:800.54,dist:180.7,ele:507},{x:803.30,dist:181.3,ele:501},{x:805.89,dist:181.9,ele:493},{x:808.60,dist:182.5,ele:492},{x:811.20,dist:183.1,ele:489},{x:813.74,dist:183.7,ele:482},{x:815.58,dist:184.1,ele:494},{x:817.31,dist:184.5,ele:502},{x:819.14,dist:184.9,ele:507},{x:821.54,dist:185.4,ele:491},{x:824.78,dist:186.2,ele:477},{x:827.78,dist:186.8,ele:459},{x:829.89,dist:187.3,ele:457},{x:833.05,dist:188.0,ele:443},{x:836.07,dist:188.7,ele:439},{x:839.04,dist:189.4,ele:430},{x:841.14,dist:189.9,ele:432},{x:843.64,dist:190.4,ele:427},{x:846.34,dist:191.1,ele:428},{x:848.88,dist:191.6,ele:426},{x:851.44,dist:192.2,ele:428},{x:854.11,dist:192.8,ele:427},{x:856.85,dist:193.4,ele:424},{x:859.78,dist:194.1,ele:413},{x:862.63,dist:194.8,ele:403},{x:865.29,dist:195.4,ele:405},{x:867.75,dist:195.9,ele:404},{x:870.43,dist:196.5,ele:399},{x:873.32,dist:197.2,ele:395},{x:876.31,dist:197.9,ele:386},{x:878.70,dist:198.4,ele:395},{x:881.03,dist:198.9,ele:395},{x:883.36,dist:199.5,ele:395},{x:885.53,dist:199.9,ele:403},{x:887.72,dist:200.4,ele:405},{x:890.33,dist:201.0,ele:398},{x:892.41,dist:201.5,ele:406},{x:894.67,dist:202.0,ele:407},{x:896.98,dist:202.5,ele:414},{x:898.72,dist:202.9,ele:427},{x:900.77,dist:203.4,ele:428},{x:903.78,dist:204.1,ele:407},{x:906.39,dist:204.7,ele:404},{x:909.31,dist:205.3,ele:388},{x:911.42,dist:205.8,ele:399},{x:913.75,dist:206.3,ele:396},{x:916.19,dist:206.9,ele:394},{x:918.77,dist:207.5,ele:385},{x:921.77,dist:208.2,ele:370},{x:923.93,dist:208.7,ele:376},{x:925.64,dist:209.0,ele:386},{x:927.70,dist:209.5,ele:392},{x:929.71,dist:210.0,ele:387},{x:932.95,dist:210.7,ele:372},{x:935.00,dist:211.2,ele:379},{x:936.55,dist:211.5,ele:389},{x:937.72,dist:211.8,ele:394},{x:939.58,dist:212.2,ele:403},{x:942.14,dist:212.8,ele:399},{x:944.65,dist:213.4,ele:395},{x:947.36,dist:214.0,ele:387},{x:949.84,dist:214.5,ele:390},{x:952.55,dist:215.2,ele:382},{x:954.85,dist:215.7,ele:391},{x:958.14,dist:216.4,ele:373},{x:961.17,dist:217.1,ele:365},{x:963.91,dist:217.7,ele:368},{x:966.15,dist:218.2,ele:372},{x:969.34,dist:219.0,ele:347},{x:972.95,dist:219.8,ele:329},{x:976.87,dist:220.7,ele:279},{x:979.74,dist:221.3,ele:280},{x:982.28,dist:221.9,ele:279},{x:984.12,dist:222.3,ele:294},{x:985.46,dist:222.6,ele:310},{x:986.90,dist:222.9,ele:319},{x:988.08,dist:223.2,ele:335},{x:989.30,dist:223.5,ele:349},{x:990.89,dist:223.8,ele:355},{x:993.31,dist:224.4,ele:341},{x:997.81,dist:225.4,ele:297},{x:1001.05,dist:226.2,ele:287},{x:1003.88,dist:226.8,ele:287},{x:1005.26,dist:227.1,ele:304},{x:1006.54,dist:227.4,ele:319},{x:1008.50,dist:227.8,ele:321},{x:1010.84,dist:228.4,ele:320},{x:1012.88,dist:228.8,ele:327},{x:1014.19,dist:229.1,ele:342},{x:1015.52,dist:229.4,ele:356},{x:1016.83,dist:229.7,ele:373},{x:1018.69,dist:230.2,ele:374},{x:1021.86,dist:230.9,ele:364},{x:1024.04,dist:231.4,ele:375},{x:1026.29,dist:231.9,ele:376},{x:1028.66,dist:232.4,ele:375},{x:1030.84,dist:232.9,ele:379},{x:1033.26,dist:233.5,ele:380},{x:1036.63,dist:234.2,ele:349},{x:1039.57,dist:234.9,ele:336},{x:1042.10,dist:235.5,ele:334},{x:1043.53,dist:235.8,ele:346},{x:1044.68,dist:236.0,ele:360},{x:1045.76,dist:236.3,ele:375},{x:1046.96,dist:236.6,ele:382},{x:1048.07,dist:236.8,ele:393},{x:1049.01,dist:237.0,ele:408},{x:1050.04,dist:237.3,ele:424},{x:1052.21,dist:237.8,ele:406},{x:1055.33,dist:238.5,ele:396},{x:1056.52,dist:238.7,ele:413},{x:1057.62,dist:239.0,ele:422},{x:1058.98,dist:239.3,ele:430},{x:1060.30,dist:239.6,ele:438},{x:1061.63,dist:239.9,ele:447},{x:1062.78,dist:240.2,ele:460},{x:1063.94,dist:240.4,ele:481},{x:1066.34,dist:241.0,ele:464},{x:1070.68,dist:241.9,ele:428},{x:1074.26,dist:242.8,ele:413},{x:1077.46,dist:243.5,ele:393},{x:1081.44,dist:244.4,ele:362},{x:1084.61,dist:245.1,ele:348},{x:1087.05,dist:245.7,ele:335},{x:1089.58,dist:246.2,ele:325},{x:1092.79,dist:247.0,ele:315},{x:1095.81,dist:247.6,ele:311},{x:1098.68,dist:248.3,ele:313},{x:1101.81,dist:249.0,ele:308},{x:1103.95,dist:249.5,ele:309}];
        var defaultText = '249.5km, 3180m';
        
        function updateText(e) {
          var pt = svg.createSVGPoint();
          pt.x = e.clientX;
          pt.y = e.clientY;
          var svgP = pt.matrixTransform(svg.getScreenCTM().inverse());
          
          var closest = null;
          var minDist = Infinity;
          for (var i = 0; i < data.length; i++) {
            var dist = Math.abs(data[i].x - svgP.x);
            if (dist < minDist) {
              minDist = dist;
              closest = data[i];
            }
          }
          
          if (closest) {
            text.textContent = closest.dist + 'km, ' + closest.ele + 'm';
          }
        }
        
        function resetText() {
          text.textContent = defaultText;
        }
        
        svg.addEventListener('pointermove', updateText);
        svg.addEventListener('pointerleave', resetText);
        
        svg.addEventListener('touchmove', function(e) {
          e.preventDefault();
        }, { passive: false });
      })();
    ]]>
  </script>
</svg>